<?xml version="1.0" standalone="no"?>
<!DOCTYPE svg PUBLIC "-//W3C//DTD SVG 20010904//EN"
 "http://www.w3.org/TR/2001/REC-SVG-20010904/DTD/svg10.dtd">
<svg version="1.0" xmlns="http://www.w3.org/2000/svg"
 width="260.000000pt" height="260.000000pt" viewBox="0 0 260.000000 260.000000"
 preserveAspectRatio="xMidYMid meet">
<metadata>
Created by potrace 1.14, written by Peter Selinger 2001-2017
</metadata>
<g transform="translate(0.000000,260.000000) scale(0.100000,-0.100000)"
fill="#000000" stroke="none">
<path d="M1164 1779 c-3 -5 -11 -6 -18 -3 -7 3 -21 -2 -30 -11 -9 -9 -16 -13
-16 -10 0 4 -18 -8 -40 -25 -22 -17 -40 -38 -40 -46 0 -8 -4 -14 -8 -14 -9 0
-10 -2 -18 -72 -8 -66 27 -156 83 -216 13 -14 7 -42 -9 -42 -17 0 -107 -74
-108 -88 0 -7 -4 -10 -10 -7 -5 3 -15 -7 -22 -22 -7 -15 -17 -31 -22 -34 -5
-4 -6 -11 -2 -17 3 -6 2 -13 -4 -17 -6 -4 -8 -10 -5 -15 3 -5 1 -11 -3 -14 -5
-3 -8 -25 -7 -48 11 -176 140 -280 340 -272 70 3 114 8 123 14 3 3 13 6 50 15
17 4 32 11 32 16 0 5 7 9 15 9 8 0 15 5 15 11 0 5 5 7 10 4 6 -3 10 -2 10 3 0
27 34 19 75 -19 43 -40 43 -40 114 -36 39 1 73 5 76 8 3 3 -20 31 -50 63 -30
31 -55 61 -55 66 0 6 -6 10 -13 10 -17 0 -40 47 -27 55 4 3 11 19 15 35 4 17
10 30 14 30 4 0 8 6 9 13 0 6 3 23 6 37 23 108 30 198 17 214 -11 14 -98 13
-112 -1 -4 -4 -10 -42 -14 -83 -6 -71 -21 -135 -36 -153 -3 -4 -40 29 -82 75
-122 133 -118 127 -104 148 6 10 14 17 19 14 11 -7 140 124 133 136 -3 5 -1
10 4 10 6 0 10 3 10 8 -1 4 0 9 1 12 7 18 7 71 -1 76 -5 3 -7 9 -4 14 3 5 -3
29 -14 54 -23 48 -79 98 -126 111 -39 11 -165 13 -171 4z m132 -117 c52 -28
70 -103 36 -154 -32 -48 -103 -94 -126 -81 -26 14 -77 94 -81 126 -11 89 89
153 171 109z m48 -573 c22 -24 48 -54 59 -66 25 -28 15 -42 -51 -74 -61 -29
-190 -32 -239 -6 -86 46 -115 158 -59 231 15 20 39 44 54 53 15 10 29 20 32
24 23 28 64 -4 204 -162z"/>
</g>
</svg>
